<svg width="19" height="20" viewBox="0 0 19 20" fill="none" xmlns="http://www.w3.org/2000/svg">
<g id="Buy">
<path id="Stroke 1" d="M3.52377 5C7.41427 3.74386 11.9724 3.45573 14 3.5C16.0276 3.54427 16.8831 4.2663 17.5 5.5C18.5 7.5 18.289 12.4881 16.5 14.0871C14.712 15.6861 7.33015 15.8381 4.87015 14.0871C2.27115 12.2361 3.629 7.192 3.544 3.743C3.595 1.813 1.5 1.5 1.5 1.5" stroke="#6B6D7B" stroke-width="1.5" stroke-linecap="round" stroke-linejoin="round"/>
<path id="Stroke 3" d="M11 8.5H13.773" stroke="#6B6D7B" stroke-width="1.5" stroke-linecap="round" stroke-linejoin="round"/>
<path id="Stroke 5" fill-rule="evenodd" clip-rule="evenodd" d="M5.26399 18.1274C5.56399 18.1274 5.80799 18.3714 5.80799 18.6714C5.80799 18.9724 5.56399 19.2164 5.26399 19.2164C4.96299 19.2164 4.71899 18.9724 4.71899 18.6714C4.71899 18.3714 4.96299 18.1274 5.26399 18.1274Z" fill="#6B6D7B" stroke="#6B6D7B" stroke-width="1.5" stroke-linecap="round" stroke-linejoin="round"/>
<path id="Stroke 7" fill-rule="evenodd" clip-rule="evenodd" d="M15.5948 18.1274C15.8958 18.1274 16.1398 18.3714 16.1398 18.6714C16.1398 18.9724 15.8958 19.2164 15.5948 19.2164C15.2948 19.2164 15.0508 18.9724 15.0508 18.6714C15.0508 18.3714 15.2948 18.1274 15.5948 18.1274Z" fill="#6B6D7B" stroke="#6B6D7B" stroke-width="1.5" stroke-linecap="round" stroke-linejoin="round"/>
</g>
</svg>
