<svg width="16" height="22" viewBox="0 0 16 22" fill="none" xmlns="http://www.w3.org/2000/svg">
<g id="Profile">
<path id="Stroke 1" fill-rule="evenodd" clip-rule="evenodd" d="M7.84455 20.6618C4.15273 20.6618 1 20.0873 1 17.7865C1 15.4858 4.13273 13.3618 7.84455 13.3618C11.5364 13.3618 14.6891 15.4652 14.6891 17.766C14.6891 20.0658 11.5564 20.6618 7.84455 20.6618Z" stroke="#6B6D7B" stroke-width="1.5" stroke-linecap="round" stroke-linejoin="round"/>
<path id="Stroke 3" fill-rule="evenodd" clip-rule="evenodd" d="M7.83652 10.1735C10.2592 10.1735 12.2229 8.2099 12.2229 5.78718C12.2229 3.36445 10.2592 1.3999 7.83652 1.3999C5.41379 1.3999 3.44924 3.36445 3.44924 5.78718C3.44106 8.20172 5.39106 10.1654 7.80561 10.1735C7.81652 10.1735 7.82652 10.1735 7.83652 10.1735Z" stroke="#6B6D7B" stroke-width="1.5" stroke-linecap="round" stroke-linejoin="round"/>
</g>
</svg>
